<svg xmlns="http://www.w3.org/2000/svg" viewBox="0 0 48.03 69"><title>Asset 1</title><g id="Layer_2" data-name="Layer 2"><g id="Layer_1-2" data-name="Layer 1"><path d="M40.58,43.55a10.71,10.71,0,0,1,.17,2.2c-1,14-12.18,15.93-15.37,16.18a1,1,0,0,0-.87.93c0,.89,0,2.12,0,2.12v3.07a1,1,0,0,0,.95,1h2.6A19.74,19.74,0,0,0,47.76,50.19h0v-.65c0-.09,0-.18,0-.27v-.21L48,30.67V30c0-.68,0-1.92,0-2.72a1,1,0,0,0-1-1.06H42.62a1,1,0,0,0-1,.93A17.49,17.49,0,0,1,40,33.61c-.45,1.14-1.09,2.07-.81,1.69l-1.14,1.56a17.67,17.67,0,1,1-15-28.33A1,1,0,0,0,24,7.58V3.14a1,1,0,0,0-1-1A24,24,0,1,0,40.58,43.55l-.34-.34" style="fill:#282b30"/><path d="M45.24,17.61H32.7c.29-2.93,1.53-4.78,4.81-7.16a18.39,18.39,0,0,0,3-2.43,3.44,3.44,0,0,0,1-2.45,2.64,2.64,0,0,0-2.69-2.88,2.76,2.76,0,0,0-2.54,1.59A4.17,4.17,0,0,0,36,6.18H32.83a6.6,6.6,0,0,1,1-3.83,6,6,0,0,1,5-2.35c3.54,0,6,2.32,6,5.68a5.78,5.78,0,0,1-1.82,4.17,33.46,33.46,0,0,1-4.17,3.06c-1.48,1-1.8,1.32-2.09,2h8.42Z" style="fill:#282b30"/></g></g></svg>